<?xml version="1.0" standalone="no"?>
<!DOCTYPE svg PUBLIC "-//W3C//DTD SVG 20010904//EN"
 "http://www.w3.org/TR/2001/REC-SVG-20010904/DTD/svg10.dtd">
<svg version="1.0" xmlns="http://www.w3.org/2000/svg"
 width="680.000000pt" height="420.000000pt" viewBox="0 0 680.000000 420.000000"
 preserveAspectRatio="xMidYMid meet">

<g transform="translate(0.000000,420.000000) scale(0.100000,-0.100000)"
fill="#b07a00" stroke="none">
<path d="M710 3220 c-36 -4 -113 -8 -172 -9 -88 -1 -113 -5 -140 -21 -29 -17
-51 -20 -175 -20 -79 0 -143 -2 -143 -5 0 -3 7 -17 16 -30 20 -30 40 -31 183
-10 98 15 121 14 121 -5 0 -5 -24 -44 -53 -87 -70 -101 -87 -135 -87 -172 0
-27 4 -31 36 -37 20 -4 60 -4 90 -1 47 5 56 3 64 -14 8 -15 22 -19 59 -19 45
0 51 -3 70 -35 26 -45 49 -45 123 0 56 35 58 36 84 19 39 -26 139 -23 198 7
77 38 108 91 32 55 -61 -29 -206 -48 -206 -27 0 5 22 23 50 41 56 36 72 67 44
87 -28 21 -43 16 -86 -26 -21 -22 -47 -41 -56 -43 -9 -2 -22 -19 -28 -38 -13
-39 -46 -62 -84 -58 -19 2 -27 11 -35 39 l-10 37 -38 -15 c-70 -28 -62 -9 58
142 75 94 93 125 72 125 -21 -1 -44 -24 -107 -110 -99 -134 -105 -140 -165
-140 -79 0 -92 26 -56 120 29 75 78 147 119 172 34 21 47 23 152 20 93 -2 125
-8 175 -28 34 -13 66 -24 72 -24 15 0 46 63 42 85 -7 33 -77 41 -219 25z m151
-341 c-42 -34 -57 -20 -20 20 16 17 24 20 33 11 8 -9 5 -16 -13 -31z"/>
<path d="M1935 3209 c-102 -29 -261 -110 -332 -170 -86 -73 -178 -199 -269
-369 -42 -80 -109 -197 -149 -260 -39 -63 -84 -146 -100 -185 -51 -128 -43
-264 26 -463 55 -155 93 -217 204 -327 111 -111 219 -182 359 -236 79 -31 84
-31 191 -25 193 11 470 52 589 87 158 47 331 148 444 258 34 34 64 61 66 61 2
0 0 -17 -6 -37 -6 -21 -8 -74 -6 -118 8 -154 80 -235 209 -235 88 0 112 13
201 114 171 194 220 300 197 432 -13 73 -39 118 -89 152 -32 22 -43 23 -130
20 -85 -3 -102 -7 -158 -37 -59 -32 -108 -76 -143 -131 l-16 -24 -59 26 c-159
72 -221 57 -313 -76 -27 -40 -68 -89 -89 -108 -43 -39 -135 -78 -183 -78 -16
0 -83 -10 -147 -22 -206 -38 -438 -22 -562 39 -161 79 -280 316 -267 533 8
143 33 218 142 436 55 111 111 226 124 255 46 101 230 254 319 266 70 9 103
-27 123 -133 9 -50 8 -62 -12 -107 -29 -70 -31 -166 -2 -205 34 -46 81 -72
132 -72 117 0 190 54 211 154 20 99 -21 350 -72 436 -39 65 -110 129 -166 150
-68 26 -173 25 -267 -1z m1368 -1543 c38 -16 82 -61 95 -97 29 -74 -104 -187
-193 -165 -71 18 -84 90 -36 193 40 83 68 98 134 69z"/>
<path d="M6530 2582 c-111 -74 -143 -111 -276 -308 -159 -236 -230 -358 -265
-457 -16 -45 -50 -122 -76 -172 -46 -86 -50 -90 -78 -87 -21 2 -75 -18 -170
-61 -190 -87 -301 -128 -349 -130 -57 -3 -58 21 -3 86 52 60 81 115 98 181 10
39 9 58 -4 109 -9 34 -19 84 -22 112 -12 91 -83 138 -251 165 -89 15 -99 13
-151 -30 -26 -21 -97 -75 -158 -118 -125 -90 -198 -163 -226 -227 -17 -38 -33
-52 -132 -112 -126 -78 -161 -94 -204 -95 -47 -1 -53 8 -53 75 1 84 12 128 48
182 40 61 47 109 27 187 -30 118 -90 188 -161 188 -21 0 -54 -16 -102 -50
-122 -86 -394 -372 -436 -460 -19 -38 -19 -40 -1 -60 11 -12 31 -20 50 -20 27
0 47 16 142 113 112 113 176 184 194 218 12 23 61 25 79 4 14 -17 13 -45 -20
-294 -12 -91 -19 -180 -15 -198 8 -47 34 -69 99 -88 115 -34 288 26 398 137
l57 57 15 -52 c22 -70 65 -146 99 -171 21 -15 47 -21 100 -24 85 -4 131 15
162 65 26 42 57 42 92 2 85 -95 186 -108 366 -46 235 82 287 107 391 191 31
26 57 46 59 46 2 0 7 -29 10 -65 11 -111 59 -175 146 -191 92 -18 537 95 554
141 12 29 19 107 13 139 -9 48 -35 54 -90 22 -30 -18 -48 -37 -59 -64 -19 -49
-29 -51 -188 -59 -119 -5 -127 -5 -147 15 -26 26 -38 87 -24 124 13 34 94 147
106 148 4 0 45 17 90 38 71 34 88 47 136 107 51 66 259 381 325 495 18 30 40
76 49 101 17 44 17 51 2 110 -22 85 -56 120 -123 126 -44 4 -54 1 -123 -45z
m130 -112 c16 -30 0 -70 -76 -190 -36 -57 -75 -128 -86 -159 -30 -81 -61 -125
-140 -202 -123 -120 -240 -183 -230 -124 4 19 230 425 294 527 17 27 52 62 81
82 29 18 63 46 76 60 29 31 66 34 81 6z m-1505 -634 c44 -19 55 -42 55 -113
-1 -76 -23 -122 -100 -206 -69 -75 -108 -99 -188 -116 -151 -32 -205 3 -192
124 4 45 39 95 133 192 104 107 143 131 220 132 21 1 53 -5 72 -13z"/>
</g>
</svg>
